<svg xmlns="http://www.w3.org/2000/svg" x="0px" y="0px" width="100" height="100" viewBox="0 0 172 172". style=" fill:#000000;">
    <g fill="none" fill-rule="nonzero" stroke="none" stroke-width="1" stroke-linecap="butt" stroke-linejoin="miter" stroke-miterlimit="10" stroke-dasharray="" stroke-dashoffset="0" font-family="none" font-weight="none" font-size="none" text-anchor="none" style="mix-blend-mode: normal">
        <path d="M0,172v-172h172v172z" fill="none"></path>
        <path d="M86,172c-47.49649,0 -86,-38.50351 -86,-86v0c0,-47.49649 38.50351,-86 86,-86v0c47.49649,0 86,38.50351 86,86v0c0,47.49649 -38.50351,86 -86,86z" fill="#f5f5f5"></path>
        <g>
            <path d="M45.87655,79.92069h80.2469v12.15862h-80.2469zM45.87655,107.88552h80.2469v12.15862h-80.2469zM45.87655,51.95586h80.2469v12.15862h-80.2469z" fill="#99b898"></path>
            <path d="M126.12345,93.29517h-80.2469c-0.67116,0 -1.21586,-0.54471 -1.21586,-1.21586v-12.15862c0,-0.67116 0.54471,-1.21586 1.21586,-1.21586h80.2469c0.67116,0 1.21586,0.54471 1.21586,1.21586v12.15862c0,0.67116 -0.54471,1.21586 -1.21586,1.21586zM47.09241,90.86345h77.81517v-9.7269h-77.81517zM126.12345,121.26h-80.2469c-0.67116,0 -1.21586,-0.54471 -1.21586,-1.21586v-12.15862c0,-0.67116 0.54471,-1.21586 1.21586,-1.21586h80.2469c0.67116,0 1.21586,0.54471 1.21586,1.21586v12.15862c0,0.67116 -0.54471,1.21586 -1.21586,1.21586zM47.09241,118.82828h77.81517v-9.7269h-77.81517zM126.12345,65.33034h-80.2469c-0.67116,0 -1.21586,-0.54471 -1.21586,-1.21586v-12.15862c0,-0.67116 0.54471,-1.21586 1.21586,-1.21586h80.2469c0.67116,0 1.21586,0.54471 1.21586,1.21586v12.15862c0,0.67116 -0.54471,1.21586 -1.21586,1.21586zM47.09241,62.89862h77.81517v-9.7269h-77.81517z" fill="#1f212b"></path>
            <path d="M114.57276,60.4669h-68.69621c-0.33558,0 -0.60793,-0.27235 -0.60793,-0.60793c0,-0.33558 0.27235,-0.60793 0.60793,-0.60793h68.69621c0.33558,0 0.60793,0.27235 0.60793,0.60793c0,0.33558 -0.27235,0.60793 -0.60793,0.60793zM120.65207,60.4669h-2.43172c-0.33558,0 -0.60793,-0.27235 -0.60793,-0.60793c0,-0.33558 0.27235,-0.60793 0.60793,-0.60793h2.43172c0.33558,0 0.60793,0.27235 0.60793,0.60793c0,0.33558 -0.27235,0.60793 -0.60793,0.60793zM125.51552,116.39655h-68.08828c-0.33558,0 -0.60793,-0.27235 -0.60793,-0.60793c0,-0.33558 0.27235,-0.60793 0.60793,-0.60793h68.08828c0.33558,0 0.60793,0.27235 0.60793,0.60793c0,0.33558 -0.27235,0.60793 -0.60793,0.60793zM53.77966,116.39655h-2.43172c-0.33558,0 -0.60793,-0.27235 -0.60793,-0.60793c0,-0.33558 0.27235,-0.60793 0.60793,-0.60793h2.43172c0.33558,0 0.60793,0.27235 0.60793,0.60793c0,0.33558 -0.27235,0.60793 -0.60793,0.60793zM107.27759,88.43172h-54.71379c-0.33558,0 -0.60793,-0.27235 -0.60793,-0.60793c0,-0.33558 0.27235,-0.60793 0.60793,-0.60793h54.71379c0.33558,0 0.60793,0.27235 0.60793,0.60793c0,0.33558 -0.27235,0.60793 -0.60793,0.60793zM120.65207,88.43172h-2.43172c-0.33558,0 -0.60793,-0.27235 -0.60793,-0.60793c0,-0.33558 0.27235,-0.60793 0.60793,-0.60793h2.43172c0.33558,0 0.60793,0.27235 0.60793,0.60793c0,0.33558 -0.27235,0.60793 -0.60793,0.60793zM114.57276,88.43172h-3.64759c-0.33558,0 -0.60793,-0.27235 -0.60793,-0.60793c0,-0.33558 0.27235,-0.60793 0.60793,-0.60793h3.64759c0.33558,0 0.60793,0.27235 0.60793,0.60793c0,0.33558 -0.27235,0.60793 -0.60793,0.60793z" fill="#1f212b"></path>
        </g>
        <path d="M86,172c-47.49649,0 -86,-38.50351 -86,-86v0c0,-47.49649 38.50351,-86 86,-86v0c47.49649,0 86,38.50351 86,86v0c0,47.49649 -38.50351,86 -86,86z" fill="none"></path><path d="M86,168.56c-45.59663,0 -82.56,-36.96337 -82.56,-82.56v0c0,-45.59663 36.96337,-82.56 82.56,-82.56v0c45.59663,0 82.56,36.96337 82.56,82.56v0c0,45.59663 -36.96337,82.56 -82.56,82.56z" fill="none"></path><path d="M86,172c-47.49649,0 -86,-38.50351 -86,-86v0c0,-47.49649 38.50351,-86 86,-86v0c47.49649,0 86,38.50351 86,86v0c0,47.49649 -38.50351,86 -86,86z" fill="none"></path>
        <path d="M86,168.56c-45.59663,0 -82.56,-36.96337 -82.56,-82.56v0c0,-45.59663 36.96337,-82.56 82.56,-82.56v0c45.59663,0 82.56,36.96337 82.56,82.56v0c0,45.59663 -36.96337,82.56 -82.56,82.56z" fill="none"></path>
    </g>
</svg>